<svg width="481.040087890625px" height="122.021240234375px" xmlns="http://www.w3.org/2000/svg" viewBox="9.479956054687506 13.9893798828125 481.040087890625 122.021240234375" style="background: rgba(0, 0, 0, 0);" preserveAspectRatio="xMidYMid"><defs><filter id="editing-jagged" x="-100%" y="-100%" width="300%" height="300%"><feTurbulence result="turb" baseFrequency="0.1" numOctaves="1" seed="1"></feTurbulence><feDisplacementMap in="SourceGraphic" in2="turb" scale="10"></feDisplacementMap></filter></defs><g filter="url(#editing-jagged)"><g transform="translate(81.57998842000961, 104.43218803405762)"><path d="M27.84-9.86L27.84-9.86L27.84-9.86Q29.06-8.32 29.06-5.34L29.06-5.34L29.06-5.34Q29.06-2.37 26.78-0.54L26.78-0.54L26.78-0.54Q24.51 1.28 20.54 1.28L20.54 1.28L20.54 1.28Q18.24 1.28 14.66 0.77L14.66 0.77L14.66 0.77Q7.62-0.32 5.60-0.32L5.60-0.32L5.60-0.32Q3.58-0.32 2.75-0.22L2.75-0.22L2.75-0.22Q1.92-0.13 0.58 0L0.58 0L8.32-42.24L22.34-42.24L15.94-7.04L15.94-7.04Q16.77-6.91 17.54-6.91L17.54-6.91L19.14-6.91L19.14-6.91Q24.51-6.91 27.84-9.86ZM36.13-1.92L36.13-1.92L36.13-1.92Q34.62-3.58 33.95-6.21L33.95-6.21L33.95-6.21Q33.28-8.83 33.28-13.12L33.28-13.12L33.28-13.12Q33.28-17.41 34.75-21.31L34.75-21.31L34.75-21.31Q36.22-25.22 38.91-28.03L38.91-28.03L38.91-28.03Q44.42-33.92 53.50-33.92L53.50-33.92L53.50-33.92Q56.77-33.92 59.14-32.83L59.14-32.83L70.08-33.92L65.34-8.96L65.34-8.96Q65.15-8.19 65.15-6.78L65.15-6.78L65.15-6.78Q65.15-5.38 66.02-4.48L66.02-4.48L66.02-4.48Q66.88-3.58 68.16-3.46L68.16-3.46L68.16-3.46Q67.52-1.28 65.18 0L65.18 0L65.18 0Q62.85 1.28 60.22 1.28L60.22 1.28L60.22 1.28Q57.60 1.28 55.84 0.29L55.84 0.29L55.84 0.29Q54.08-0.70 53.57-2.37L53.57-2.37L53.57-2.37Q52.54-0.77 50.37 0.26L50.37 0.26L50.37 0.26Q48.19 1.28 45.28 1.28L45.28 1.28L45.28 1.28Q42.37 1.28 40 0.51L40 0.51L40 0.51Q37.63-0.26 36.13-1.92ZM49.63-27.90L49.63-27.90L49.63-27.90Q48.90-26.75 48.26-24.80L48.26-24.80L48.26-24.80Q47.62-22.85 46.56-17.63L46.56-17.63L46.56-17.63Q45.50-12.42 45.50-8.70L45.50-8.70L45.50-8.70Q45.50-4.99 46.08-3.90L46.08-3.90L46.08-3.90Q46.66-2.82 47.68-2.82L47.68-2.82L47.68-2.82Q49.73-2.82 51.23-4.77L51.23-4.77L51.23-4.77Q52.74-6.72 53.31-10.18L53.31-10.18L56.70-28.93L56.70-28.93Q55.36-30.08 53.79-30.08L53.79-30.08L53.79-30.08Q52.22-30.08 51.30-29.57L51.30-29.57L51.30-29.57Q50.37-29.06 49.63-27.90ZM119.62 1.28L119.62 1.28L119.62 1.28Q111.87 1.28 111.87-4.74L111.87-4.74L111.87-4.74Q111.87-7.36 112.99-12.45L112.99-12.45L112.99-12.45Q114.11-17.54 114.50-19.58L114.50-19.58L114.50-19.58Q115.39-24.26 115.39-25.73L115.39-25.73L115.39-25.73Q115.39-28.99 112.96-28.99L112.96-28.99L112.96-28.99Q111.36-28.99 109.82-26.78L109.82-26.78L109.82-26.78Q108.29-24.58 107.58-20.16L107.58-20.16L103.62 0L91.14 1.28L94.59-16.13L94.59-16.13Q95.17-19.01 95.68-22.27L95.68-22.27L95.68-22.27Q96.19-25.54 96.19-26.05L96.19-26.05L96.19-26.05Q96.19-28.99 94.02-28.99L94.02-28.99L94.02-28.99Q92.54-28.99 90.94-26.82L90.94-26.82L90.94-26.82Q89.34-24.64 88.45-20.16L88.45-20.16L84.54 0L71.94 1.28L78.66-32.64L89.09-33.92L88-27.46L88-27.46Q89.66-30.91 92.74-32.42L92.74-32.42L92.74-32.42Q95.81-33.92 100.61-33.92L100.61-33.92L100.61-33.92Q103.36-33.92 105.15-32.58L105.15-32.58L105.15-32.58Q106.94-31.23 107.52-29.06L107.52-29.06L107.52-29.06Q108.61-31.30 111.39-32.61L111.39-32.61L111.39-32.61Q114.18-33.92 117.60-33.92L117.60-33.92L117.60-33.92Q121.02-33.92 122.72-33.18L122.72-33.18L122.72-33.18Q124.42-32.45 125.44-31.23L125.44-31.23L125.44-31.23Q127.17-28.99 127.17-24.90L127.17-24.90L127.17-24.90Q127.17-20.86 125.44-12.48L125.44-12.48L125.44-12.48Q124.54-8.38 124.54-6.88L124.54-6.88L124.54-6.88Q124.54-5.38 125.41-4.48L125.41-4.48L125.41-4.48Q126.27-3.58 127.55-3.46L127.55-3.46L127.55-3.46Q126.91-1.28 124.70 0L124.70 0L124.70 0Q122.50 1.28 119.62 1.28ZM162.30-4.38L162.30-4.38L162.30-4.38Q159.62-1.66 155.94-0.19L155.94-0.19L155.94-0.19Q152.26 1.28 148.61 1.28L148.61 1.28L148.61 1.28Q144.96 1.28 143.68 0.64L143.68 0.64L141.70 11.52L128.70 12.80L137.54-32.64L147.97-33.73L147.14-29.31L147.14-29.31Q149.82-33.86 155.39-33.86L155.39-33.86L155.39-33.86Q161.66-33.86 164.99-29.82L164.99-29.82L164.99-29.82Q167.94-26.18 167.94-20.61L167.94-20.61L167.94-20.61Q167.94-15.04 166.46-11.07L166.46-11.07L166.46-11.07Q164.99-7.10 162.30-4.38ZM147.84-22.34L144.45-3.58L144.45-3.58Q145.79-2.43 147.46-2.43L147.46-2.43L147.46-2.43Q149.12-2.43 150.08-3.07L150.08-3.07L150.08-3.07Q151.04-3.71 151.74-4.99L151.74-4.99L151.74-4.99Q153.66-8.45 155.20-18.94L155.20-18.94L155.20-18.94Q155.65-22.02 155.65-25.02L155.65-25.02L155.65-25.02Q155.65-28.03 154.98-28.99L154.98-28.99L154.98-28.99Q154.30-29.95 153.02-29.95L153.02-29.95L153.02-29.95Q149.12-29.95 147.84-22.34L147.84-22.34ZM209.92-29.57L209.92-29.57L209.92-29.57Q210.88-31.49 210.88-33.28L210.88-33.28L210.88-33.28Q210.88-35.07 210.69-36.06L210.69-36.06L210.69-36.06Q210.50-37.06 210.05-37.82L210.05-37.82L210.05-37.82Q209.09-39.49 207.17-39.49L207.17-39.49L207.17-39.49Q204.80-39.49 202.88-37.76L202.88-37.76L202.88-37.76Q200.83-35.97 200.83-33.15L200.83-33.15L200.83-33.15Q200.83-31.36 202.08-29.98L202.08-29.98L202.08-29.98Q203.33-28.61 205.25-27.33L205.25-27.33L205.25-27.33Q207.17-26.05 209.34-24.77L209.34-24.77L209.34-24.77Q211.52-23.49 213.44-21.95L213.44-21.95L213.44-21.95Q217.86-18.43 217.86-13.70L217.86-13.70L217.86-13.70Q217.86-10.50 216.16-7.78L216.16-7.78L216.16-7.78Q214.46-5.06 211.65-3.07L211.65-3.07L211.65-3.07Q205.50 1.28 197.38 1.28L197.38 1.28L197.38 1.28Q190.78 1.28 187.39-0.86L187.39-0.86L187.39-0.86Q184.00-3.01 184.00-6.27L184.00-6.27L184.00-6.27Q184.00-12.10 188.54-13.57L188.54-13.57L188.54-13.57Q189.82-14.02 191.78-14.02L191.78-14.02L191.78-14.02Q193.73-14.02 195.97-13.18L195.97-13.18L195.97-13.18Q194.94-10.56 194.94-8.19L194.94-8.19L194.94-8.19Q194.94-3.07 198.59-3.07L198.59-3.07L198.59-3.07Q200.96-3.07 202.91-4.80L202.91-4.80L202.91-4.80Q204.86-6.53 204.86-8.48L204.86-8.48L204.86-8.48Q204.86-10.43 203.62-11.84L203.62-11.84L203.62-11.84Q202.37-13.25 200.51-14.37L200.51-14.37L200.51-14.37Q198.66-15.49 196.51-16.58L196.51-16.58L196.51-16.58Q194.37-17.66 192.51-19.20L192.51-19.20L192.51-19.20Q188.16-22.72 188.16-28.35L188.16-28.35L188.16-28.35Q188.16-32 189.95-34.85L189.95-34.85L189.95-34.85Q191.74-37.70 194.62-39.62L194.62-39.62L194.62-39.62Q200.38-43.52 207.46-43.52L207.46-43.52L207.46-43.52Q214.53-43.52 217.95-41.41L217.95-41.41L217.95-41.41Q221.38-39.30 221.38-35.71L221.38-35.71L221.38-35.71Q221.38-32.58 218.94-30.59L218.94-30.59L218.94-30.59Q216.83-28.93 214.27-28.93L214.27-28.93L214.27-28.93Q211.71-28.93 209.92-29.57ZM254.91-7.10L254.91-7.10L254.91-7.10Q254.91-4.29 257.79-3.46L257.79-3.46L257.79-3.46Q257.09-1.09 254.34 0.19L254.34 0.19L254.34 0.19Q252.03 1.28 249.50 1.28L249.50 1.28L249.50 1.28Q246.98 1.28 245.66 0.61L245.66 0.61L245.66 0.61Q244.35-0.06 243.65-1.15L243.65-1.15L243.65-1.15Q242.50-2.82 242.50-5.95L242.50-5.95L242.50-5.95Q242.50-7.81 243.52-12.93L243.52-12.93L244.42-17.79L244.42-17.79Q245.50-23.36 245.50-25.41L245.50-25.41L245.50-25.41Q245.50-28.99 243.52-28.99L243.52-28.99L243.52-28.99Q241.02-28.99 239.42-25.34L239.42-25.34L239.42-25.34Q238.78-23.94 238.34-21.82L238.34-21.82L233.98 0L221.12 1.28L230.14-44.80L243.01-46.08L242.50-43.52L242.50-43.52Q240.70-33.66 239.17-30.34L239.17-30.34L239.17-30.34Q242.75-33.92 249.34-33.92L249.34-33.92L249.34-33.92Q256.32-33.92 257.60-29.31L257.60-29.31L257.60-29.31Q258.05-27.84 258.05-26.56L258.05-26.56L258.05-26.56Q258.05-25.28 257.95-24.29L257.95-24.29L257.95-24.29Q257.86-23.30 257.54-21.50L257.54-21.50L256.70-16.90L255.23-9.66L255.23-9.66Q254.91-8.19 254.91-7.10ZM276.93 1.28L276.93 1.28L276.93 1.28Q262.85 1.28 262.85-11.97L262.85-11.97L262.85-11.97Q262.85-21.38 268.03-27.46L268.03-27.46L268.03-27.46Q273.54-33.92 283.07-33.92L283.07-33.92L283.07-33.92Q289.98-33.92 293.50-30.72L293.50-30.72L293.50-30.72Q297.02-27.52 297.02-20.80L297.02-20.80L297.02-20.80Q297.02-10.56 291.52-4.61L291.52-4.61L291.52-4.61Q286.14 1.28 276.93 1.28ZM278.59-26.56L278.59-26.56L278.59-26.56Q277.82-24.83 277.22-22.24L277.22-22.24L277.22-22.24Q276.61-19.65 275.84-15.55L275.84-15.55L275.84-15.55Q275.07-11.46 275.07-6.40L275.07-6.40L275.07-6.40Q275.07-4.74 275.62-3.65L275.62-3.65L275.62-3.65Q276.16-2.56 277.63-2.56L277.63-2.56L277.63-2.56Q279.10-2.56 280.03-3.26L280.03-3.26L280.03-3.26Q280.96-3.97 281.66-5.63L281.66-5.63L281.66-5.63Q282.94-8.58 283.97-14.05L283.97-14.05L283.97-14.05Q284.99-19.52 285.09-21.89L285.09-21.89L285.09-21.89Q285.18-24.26 285.18-26.02L285.18-26.02L285.18-26.02Q285.18-27.78 284.67-28.93L284.67-28.93L284.67-28.93Q284.16-30.08 282.72-30.08L282.72-30.08L282.72-30.08Q281.28-30.08 280.32-29.18L280.32-29.18L280.32-29.18Q279.36-28.29 278.59-26.56ZM330.62-4.38L330.62-4.38L330.62-4.38Q327.94-1.66 324.26-0.19L324.26-0.19L324.26-0.19Q320.58 1.28 316.93 1.28L316.93 1.28L316.93 1.28Q313.28 1.28 312 0.64L312 0.64L310.02 11.52L297.02 12.80L305.86-32.64L316.29-33.73L315.46-29.31L315.46-29.31Q318.14-33.86 323.71-33.86L323.71-33.86L323.71-33.86Q329.98-33.86 333.31-29.82L333.31-29.82L333.31-29.82Q336.26-26.18 336.26-20.61L336.26-20.61L336.26-20.61Q336.26-15.04 334.78-11.07L334.78-11.07L334.78-11.07Q333.31-7.10 330.62-4.38ZM316.16-22.34L312.77-3.58L312.77-3.58Q314.11-2.43 315.78-2.43L315.78-2.43L315.78-2.43Q317.44-2.43 318.40-3.07L318.40-3.07L318.40-3.07Q319.36-3.71 320.06-4.99L320.06-4.99L320.06-4.99Q321.98-8.45 323.52-18.94L323.52-18.94L323.52-18.94Q323.97-22.02 323.97-25.02L323.97-25.02L323.97-25.02Q323.97-28.03 323.30-28.99L323.30-28.99L323.30-28.99Q322.62-29.95 321.34-29.95L321.34-29.95L321.34-29.95Q317.44-29.95 316.16-22.34L316.16-22.34Z" fill="#444"></path></g></g><style>text {
  font-size: 64px;
  font-family: Arial Black;
  dominant-baseline: central;
  text-anchor: middle;
}</style></svg>