<svg width="581" height="159" viewBox="0 0 581 159" fill="none" xmlns="http://www.w3.org/2000/svg">
<path d="M203.001 15.9634L213.019 54.3202L222.999 15.9634H236.987V69H226.241V54.6481L227.225 32.5373L216.625 69H209.34L198.74 32.5373L199.723 54.6481V69H189.014V15.9634H203.001ZM243.908 48.0185C243.908 42.0446 245.317 37.3577 248.134 33.958C250.951 30.5582 254.848 28.8583 259.826 28.8583C264.853 28.8583 268.775 30.5582 271.592 33.958C274.409 37.3577 275.818 42.0689 275.818 48.0913V50.6048C275.818 56.6029 274.421 61.2898 271.629 64.6653C268.836 68.0408 264.926 69.7285 259.899 69.7285C254.848 69.7285 250.914 68.0408 248.097 64.6653C245.304 61.2655 243.908 56.5544 243.908 50.5319V48.0185ZM254.253 50.6048C254.253 57.6472 256.135 61.1684 259.899 61.1684C263.372 61.1684 265.242 58.23 265.509 52.3532L265.545 48.0185C265.545 44.4244 265.048 41.7653 264.052 40.0411C263.056 38.2927 261.648 37.4185 259.826 37.4185C258.078 37.4185 256.706 38.2927 255.71 40.0411C254.739 41.7653 254.253 44.4244 254.253 48.0185V50.6048ZM294.249 19.8974V29.5868H299.531V37.3456H294.249V56.9065C294.249 58.4607 294.456 59.5292 294.868 60.112C295.306 60.6948 296.131 60.9862 297.345 60.9862C298.341 60.9862 299.155 60.9012 299.786 60.7312L299.713 68.745C297.965 69.4007 296.071 69.7285 294.031 69.7285C287.377 69.7285 284.013 65.9159 283.941 58.2907V37.3456H279.387V29.5868H283.941V19.8974H294.249ZM319.711 15.9634L329.728 54.3202L339.709 15.9634H353.697V69H342.951V54.6481L343.935 32.5373L333.335 69H326.049L315.449 32.5373L316.433 54.6481V69H305.723V15.9634H319.711ZM360.618 48.0185C360.618 42.0446 362.026 37.3577 364.843 33.958C367.66 30.5582 371.558 28.8583 376.536 28.8583C381.563 28.8583 385.485 30.5582 388.302 33.958C391.119 37.3577 392.527 42.0689 392.527 48.0913V50.6048C392.527 56.6029 391.131 61.2898 388.338 64.6653C385.546 68.0408 381.636 69.7285 376.609 69.7285C371.558 69.7285 367.624 68.0408 364.807 64.6653C362.014 61.2655 360.618 56.5544 360.618 50.5319V48.0185ZM370.963 50.6048C370.963 57.6472 372.845 61.1684 376.609 61.1684C380.082 61.1684 381.951 58.23 382.219 52.3532L382.255 48.0185C382.255 44.4244 381.757 41.7653 380.762 40.0411C379.766 38.2927 378.357 37.4185 376.536 37.4185C374.788 37.4185 373.416 38.2927 372.42 40.0411C371.449 41.7653 370.963 44.4244 370.963 48.0185V50.6048ZM418.353 65.3938C416.216 68.2836 413.351 69.7285 409.757 69.7285C406.138 69.7285 403.394 68.49 401.524 66.013C399.655 63.5118 398.72 59.8813 398.72 55.1216V29.5868H409.028V55.3766C409.077 59.2135 410.352 61.1319 412.853 61.1319C415.209 61.1319 416.908 60.112 417.953 58.0721V29.5868H428.334V69H418.645L418.353 65.3938ZM446.511 69H436.166V13.0493H446.511V69ZM453.104 48.0913C453.104 41.6318 454.197 36.8114 456.382 33.6301C458.568 30.4489 461.749 28.8583 465.926 28.8583C468.962 28.8583 471.487 30.1696 473.503 32.7923V13.0493H483.884V69H474.523L474.049 64.9931C471.936 68.1501 469.217 69.7285 465.89 69.7285C461.761 69.7285 458.604 68.1501 456.419 64.9931C454.258 61.8362 453.153 57.1979 453.104 51.0783V48.0913ZM463.449 50.6776C463.449 54.5631 463.862 57.2829 464.688 58.8371C465.513 60.367 466.91 61.1319 468.877 61.1319C470.916 61.1319 472.459 60.2213 473.503 58.4V40.4054C472.483 38.4627 470.953 37.4913 468.913 37.4913C467.019 37.4913 465.635 38.2563 464.76 39.7862C463.886 41.3161 463.449 44.0359 463.449 47.9456V50.6776Z" fill="#232323"/>
<path d="M197.328 98.4837H192.319V112.376H190.275V98.4837H185.276V96.7926H197.328V98.4837ZM201.31 102.198C202.187 101.12 203.329 100.581 204.734 100.581C207.182 100.581 208.416 101.962 208.438 104.724V112.376H206.458V104.713C206.451 103.878 206.258 103.261 205.88 102.861C205.509 102.462 204.927 102.262 204.135 102.262C203.493 102.262 202.929 102.433 202.444 102.776C201.959 103.118 201.581 103.568 201.31 104.124V112.376H199.329V95.9364H201.31V102.198ZM216.208 112.59C214.638 112.59 213.361 112.077 212.376 111.049C211.392 110.014 210.899 108.634 210.899 106.907V106.543C210.899 105.394 211.117 104.37 211.552 103.471C211.995 102.565 212.608 101.859 213.393 101.352C214.185 100.838 215.041 100.581 215.962 100.581C217.468 100.581 218.638 101.077 219.473 102.069C220.307 103.061 220.725 104.481 220.725 106.329V107.153H212.879C212.908 108.295 213.24 109.219 213.875 109.925C214.517 110.624 215.33 110.974 216.315 110.974C217.014 110.974 217.607 110.831 218.092 110.546C218.577 110.261 219.002 109.882 219.366 109.411L220.575 110.353C219.605 111.845 218.149 112.59 216.208 112.59ZM215.962 102.208C215.163 102.208 214.492 102.501 213.95 103.086C213.407 103.664 213.072 104.477 212.944 105.526H218.745V105.376C218.688 104.37 218.417 103.593 217.931 103.043C217.446 102.487 216.79 102.208 215.962 102.208ZM235.206 109.304C235.206 108.769 235.003 108.355 234.596 108.063C234.196 107.763 233.493 107.506 232.487 107.292C231.488 107.078 230.693 106.821 230.101 106.522C229.516 106.222 229.08 105.865 228.795 105.451C228.517 105.038 228.377 104.545 228.377 103.974C228.377 103.025 228.777 102.223 229.576 101.566C230.382 100.91 231.41 100.581 232.659 100.581C233.972 100.581 235.035 100.92 235.848 101.598C236.669 102.276 237.079 103.143 237.079 104.199H235.088C235.088 103.657 234.856 103.189 234.393 102.797C233.936 102.405 233.358 102.208 232.659 102.208C231.938 102.208 231.374 102.365 230.968 102.679C230.561 102.993 230.358 103.404 230.358 103.91C230.358 104.388 230.547 104.749 230.925 104.991C231.303 105.234 231.984 105.466 232.969 105.687C233.961 105.908 234.764 106.172 235.377 106.479C235.991 106.786 236.444 107.157 236.737 107.592C237.036 108.02 237.186 108.545 237.186 109.165C237.186 110.2 236.772 111.031 235.944 111.659C235.117 112.28 234.043 112.59 232.723 112.59C231.795 112.59 230.975 112.426 230.261 112.098C229.548 111.77 228.988 111.313 228.581 110.728C228.181 110.136 227.981 109.497 227.981 108.812H229.961C229.997 109.476 230.261 110.004 230.754 110.396C231.253 110.781 231.909 110.974 232.723 110.974C233.472 110.974 234.071 110.824 234.521 110.525C234.978 110.218 235.206 109.811 235.206 109.304ZM246.915 111.231C246.144 112.137 245.014 112.59 243.522 112.59C242.288 112.59 241.346 112.234 240.697 111.52C240.054 110.799 239.73 109.736 239.723 108.33V100.796H241.703V108.277C241.703 110.032 242.416 110.91 243.843 110.91C245.356 110.91 246.362 110.346 246.862 109.219V100.796H248.842V112.376H246.958L246.915 111.231ZM256.505 110.974C257.211 110.974 257.829 110.76 258.357 110.332C258.885 109.904 259.177 109.369 259.234 108.726H261.107C261.072 109.39 260.843 110.022 260.422 110.621C260.001 111.22 259.438 111.698 258.731 112.055C258.032 112.412 257.29 112.59 256.505 112.59C254.928 112.59 253.672 112.066 252.738 111.017C251.81 109.961 251.346 108.52 251.346 106.693V106.361C251.346 105.234 251.553 104.231 251.967 103.354C252.381 102.476 252.973 101.795 253.744 101.309C254.521 100.824 255.438 100.581 256.494 100.581C257.793 100.581 258.87 100.97 259.727 101.748C260.59 102.526 261.05 103.536 261.107 104.777H259.234C259.177 104.028 258.892 103.414 258.378 102.936C257.871 102.451 257.243 102.208 256.494 102.208C255.488 102.208 254.707 102.572 254.15 103.3C253.601 104.021 253.326 105.066 253.326 106.436V106.811C253.326 108.145 253.601 109.172 254.15 109.893C254.7 110.614 255.485 110.974 256.505 110.974ZM267.979 110.974C268.685 110.974 269.302 110.76 269.83 110.332C270.358 109.904 270.651 109.369 270.708 108.726H272.581C272.545 109.39 272.317 110.022 271.896 110.621C271.475 111.22 270.911 111.698 270.205 112.055C269.506 112.412 268.764 112.59 267.979 112.59C266.402 112.59 265.146 112.066 264.211 111.017C263.284 109.961 262.82 108.52 262.82 106.693V106.361C262.82 105.234 263.027 104.231 263.441 103.354C263.854 102.476 264.447 101.795 265.217 101.309C265.995 100.824 266.912 100.581 267.968 100.581C269.267 100.581 270.344 100.97 271.2 101.748C272.064 102.526 272.524 103.536 272.581 104.777H270.708C270.651 104.028 270.365 103.414 269.852 102.936C269.345 102.451 268.717 102.208 267.968 102.208C266.962 102.208 266.181 102.572 265.624 103.3C265.075 104.021 264.8 105.066 264.8 106.436V106.811C264.8 108.145 265.075 109.172 265.624 109.893C266.173 110.614 266.958 110.974 267.979 110.974ZM279.613 112.59C278.043 112.59 276.766 112.077 275.781 111.049C274.796 110.014 274.304 108.634 274.304 106.907V106.543C274.304 105.394 274.522 104.37 274.957 103.471C275.399 102.565 276.013 101.859 276.798 101.352C277.59 100.838 278.446 100.581 279.367 100.581C280.872 100.581 282.042 101.077 282.877 102.069C283.712 103.061 284.129 104.481 284.129 106.329V107.153H276.284C276.313 108.295 276.644 109.219 277.28 109.925C277.922 110.624 278.735 110.974 279.72 110.974C280.419 110.974 281.011 110.831 281.497 110.546C281.982 110.261 282.406 109.882 282.77 109.411L283.98 110.353C283.009 111.845 281.554 112.59 279.613 112.59ZM279.367 102.208C278.567 102.208 277.897 102.501 277.354 103.086C276.812 103.664 276.477 104.477 276.348 105.526H282.149V105.376C282.092 104.37 281.821 103.593 281.336 103.043C280.851 102.487 280.194 102.208 279.367 102.208ZM293.174 109.304C293.174 108.769 292.97 108.355 292.563 108.063C292.164 107.763 291.461 107.506 290.455 107.292C289.456 107.078 288.66 106.821 288.068 106.522C287.483 106.222 287.048 105.865 286.762 105.451C286.484 105.038 286.345 104.545 286.345 103.974C286.345 103.025 286.745 102.223 287.544 101.566C288.35 100.91 289.378 100.581 290.626 100.581C291.939 100.581 293.002 100.92 293.816 101.598C294.636 102.276 295.047 103.143 295.047 104.199H293.056C293.056 103.657 292.824 103.189 292.36 102.797C291.903 102.405 291.325 102.208 290.626 102.208C289.906 102.208 289.342 102.365 288.935 102.679C288.528 102.993 288.325 103.404 288.325 103.91C288.325 104.388 288.514 104.749 288.892 104.991C289.27 105.234 289.952 105.466 290.937 105.687C291.928 105.908 292.731 106.172 293.345 106.479C293.958 106.786 294.411 107.157 294.704 107.592C295.004 108.02 295.154 108.545 295.154 109.165C295.154 110.2 294.74 111.031 293.912 111.659C293.084 112.28 292.01 112.59 290.69 112.59C289.763 112.59 288.942 112.426 288.229 112.098C287.515 111.77 286.955 111.313 286.548 110.728C286.149 110.136 285.949 109.497 285.949 108.812H287.929C287.965 109.476 288.229 110.004 288.721 110.396C289.221 110.781 289.877 110.974 290.69 110.974C291.44 110.974 292.039 110.824 292.489 110.525C292.945 110.218 293.174 109.811 293.174 109.304ZM304.476 109.304C304.476 108.769 304.273 108.355 303.866 108.063C303.466 107.763 302.763 107.506 301.757 107.292C300.758 107.078 299.963 106.821 299.371 106.522C298.785 106.222 298.35 105.865 298.065 105.451C297.787 105.038 297.647 104.545 297.647 103.974C297.647 103.025 298.047 102.223 298.846 101.566C299.652 100.91 300.68 100.581 301.929 100.581C303.241 100.581 304.305 100.92 305.118 101.598C305.939 102.276 306.349 103.143 306.349 104.199H304.358C304.358 103.657 304.126 103.189 303.662 102.797C303.206 102.405 302.628 102.208 301.929 102.208C301.208 102.208 300.644 102.365 300.238 102.679C299.831 102.993 299.627 103.404 299.627 103.91C299.627 104.388 299.817 104.749 300.195 104.991C300.573 105.234 301.254 105.466 302.239 105.687C303.231 105.908 304.034 106.172 304.647 106.479C305.261 106.786 305.714 107.157 306.006 107.592C306.306 108.02 306.456 108.545 306.456 109.165C306.456 110.2 306.042 111.031 305.214 111.659C304.387 112.28 303.313 112.59 301.993 112.59C301.065 112.59 300.245 112.426 299.531 112.098C298.818 111.77 298.257 111.313 297.851 110.728C297.451 110.136 297.251 109.497 297.251 108.812H299.231C299.267 109.476 299.531 110.004 300.023 110.396C300.523 110.781 301.179 110.974 301.993 110.974C302.742 110.974 303.341 110.824 303.791 110.525C304.248 110.218 304.476 109.811 304.476 109.304ZM313.948 106.479C313.948 105.344 314.169 104.324 314.612 103.418C315.061 102.512 315.682 101.812 316.474 101.32C317.273 100.828 318.183 100.581 319.203 100.581C320.78 100.581 322.054 101.127 323.024 102.219C324.002 103.311 324.491 104.763 324.491 106.575V106.714C324.491 107.842 324.273 108.855 323.838 109.754C323.41 110.646 322.792 111.342 321.986 111.841C321.187 112.341 320.266 112.59 319.225 112.59C317.655 112.59 316.381 112.044 315.404 110.953C314.433 109.861 313.948 108.416 313.948 106.618V106.479ZM315.939 106.714C315.939 107.999 316.235 109.03 316.827 109.807C317.427 110.585 318.226 110.974 319.225 110.974C320.231 110.974 321.03 110.582 321.622 109.797C322.214 109.005 322.51 107.899 322.51 106.479C322.51 105.209 322.207 104.181 321.601 103.396C321.001 102.604 320.202 102.208 319.203 102.208C318.226 102.208 317.437 102.597 316.838 103.375C316.239 104.153 315.939 105.266 315.939 106.714ZM327.948 112.376V102.326H326.117V100.796H327.948V99.6075C327.948 98.366 328.279 97.4063 328.943 96.7284C329.607 96.0506 330.545 95.7116 331.758 95.7116C332.215 95.7116 332.668 95.7723 333.117 95.8936L333.01 97.499C332.675 97.4348 332.318 97.4027 331.94 97.4027C331.298 97.4027 330.802 97.5918 330.452 97.97C330.102 98.341 329.928 98.8761 329.928 99.5754V100.796H332.4V102.326H329.928V112.376H327.948ZM347.181 112.376C347.067 112.148 346.974 111.741 346.903 111.156C345.982 112.112 344.883 112.59 343.606 112.59C342.464 112.59 341.526 112.269 340.791 111.627C340.063 110.978 339.7 110.157 339.7 109.165C339.7 107.959 340.156 107.025 341.07 106.361C341.99 105.69 343.281 105.355 344.944 105.355H346.871V104.445C346.871 103.753 346.664 103.204 346.25 102.797C345.836 102.383 345.226 102.176 344.42 102.176C343.713 102.176 343.121 102.355 342.643 102.711C342.165 103.068 341.926 103.5 341.926 104.006H339.935C339.935 103.428 340.138 102.872 340.545 102.337C340.959 101.795 341.515 101.366 342.215 101.052C342.921 100.738 343.695 100.581 344.537 100.581C345.872 100.581 346.917 100.917 347.673 101.588C348.43 102.251 348.822 103.168 348.851 104.338V109.668C348.851 110.732 348.986 111.577 349.257 112.205V112.376H347.181ZM343.895 110.867C344.516 110.867 345.105 110.707 345.661 110.385C346.218 110.064 346.621 109.647 346.871 109.133V106.757H345.319C342.893 106.757 341.68 107.467 341.68 108.887C341.68 109.508 341.887 109.993 342.3 110.343C342.714 110.692 343.246 110.867 343.895 110.867ZM367.174 106.714C367.174 108.477 366.771 109.897 365.965 110.974C365.158 112.052 364.067 112.59 362.69 112.59C361.284 112.59 360.178 112.144 359.372 111.252V116.829H357.392V100.796H359.2L359.297 102.08C360.103 101.081 361.223 100.581 362.657 100.581C364.049 100.581 365.148 101.106 365.954 102.155C366.767 103.204 367.174 104.663 367.174 106.532V106.714ZM365.194 106.49C365.194 105.184 364.916 104.153 364.359 103.396C363.803 102.64 363.039 102.262 362.069 102.262C360.87 102.262 359.971 102.793 359.372 103.857V109.39C359.964 110.446 360.87 110.974 362.09 110.974C363.039 110.974 363.792 110.6 364.349 109.85C364.912 109.094 365.194 107.974 365.194 106.49ZM375.298 102.572C374.998 102.522 374.673 102.497 374.324 102.497C373.025 102.497 372.144 103.05 371.68 104.156V112.376H369.7V100.796H371.627L371.659 102.133C372.308 101.099 373.229 100.581 374.42 100.581C374.805 100.581 375.098 100.631 375.298 100.731V102.572ZM376.389 106.479C376.389 105.344 376.611 104.324 377.053 103.418C377.503 102.512 378.123 101.812 378.915 101.32C379.715 100.828 380.624 100.581 381.645 100.581C383.222 100.581 384.495 101.127 385.466 102.219C386.443 103.311 386.932 104.763 386.932 106.575V106.714C386.932 107.842 386.714 108.855 386.279 109.754C385.851 110.646 385.234 111.342 384.427 111.841C383.628 112.341 382.708 112.59 381.666 112.59C380.096 112.59 378.823 112.044 377.845 110.953C376.875 109.861 376.389 108.416 376.389 106.618V106.479ZM378.38 106.714C378.38 107.999 378.676 109.03 379.269 109.807C379.868 110.585 380.667 110.974 381.666 110.974C382.672 110.974 383.471 110.582 384.064 109.797C384.656 109.005 384.952 107.899 384.952 106.479C384.952 105.209 384.649 104.181 384.042 103.396C383.443 102.604 382.644 102.208 381.645 102.208C380.667 102.208 379.879 102.597 379.279 103.375C378.68 104.153 378.38 105.266 378.38 106.714ZM388.933 106.49C388.933 104.713 389.354 103.286 390.196 102.208C391.038 101.124 392.141 100.581 393.504 100.581C394.859 100.581 395.933 101.045 396.725 101.973V95.9364H398.705V112.376H396.886L396.789 111.135C395.997 112.105 394.895 112.59 393.482 112.59C392.141 112.59 391.045 112.041 390.196 110.942C389.354 109.843 388.933 108.409 388.933 106.639V106.49ZM390.913 106.714C390.913 108.027 391.185 109.055 391.727 109.797C392.269 110.539 393.018 110.91 393.975 110.91C395.23 110.91 396.147 110.346 396.725 109.219V103.899C396.133 102.808 395.223 102.262 393.996 102.262C393.026 102.262 392.269 102.636 391.727 103.386C391.185 104.135 390.913 105.244 390.913 106.714ZM408.937 111.231C408.167 112.137 407.036 112.59 405.544 112.59C404.31 112.59 403.368 112.234 402.719 111.52C402.077 110.799 401.752 109.736 401.745 108.33V100.796H403.725V108.277C403.725 110.032 404.439 110.91 405.866 110.91C407.378 110.91 408.384 110.346 408.884 109.219V100.796H410.864V112.376H408.98L408.937 111.231ZM418.527 110.974C419.234 110.974 419.851 110.76 420.379 110.332C420.907 109.904 421.199 109.369 421.257 108.726H423.13C423.094 109.39 422.866 110.022 422.445 110.621C422.024 111.22 421.46 111.698 420.753 112.055C420.054 112.412 419.312 112.59 418.527 112.59C416.95 112.59 415.695 112.066 414.76 111.017C413.832 109.961 413.368 108.52 413.368 106.693V106.361C413.368 105.234 413.575 104.231 413.989 103.354C414.403 102.476 414.995 101.795 415.766 101.309C416.544 100.824 417.461 100.581 418.517 100.581C419.815 100.581 420.893 100.97 421.749 101.748C422.612 102.526 423.072 103.536 423.13 104.777H421.257C421.199 104.028 420.914 103.414 420.4 102.936C419.894 102.451 419.266 102.208 418.517 102.208C417.51 102.208 416.729 102.572 416.173 103.3C415.623 104.021 415.348 105.066 415.348 106.436V106.811C415.348 108.145 415.623 109.172 416.173 109.893C416.722 110.614 417.507 110.974 418.527 110.974ZM428.042 97.9914V100.796H430.204V102.326H428.042V109.508C428.042 109.972 428.139 110.321 428.331 110.557C428.524 110.785 428.852 110.899 429.316 110.899C429.544 110.899 429.858 110.856 430.258 110.771V112.376C429.737 112.519 429.23 112.59 428.738 112.59C427.853 112.59 427.186 112.323 426.736 111.788C426.287 111.252 426.062 110.492 426.062 109.508V102.326H423.954V100.796H426.062V97.9914H428.042ZM434.678 112.376H432.698V100.796H434.678V112.376ZM432.537 97.7238C432.537 97.4027 432.634 97.1316 432.826 96.9104C433.026 96.6892 433.319 96.5786 433.704 96.5786C434.089 96.5786 434.382 96.6892 434.582 96.9104C434.782 97.1316 434.881 97.4027 434.881 97.7238C434.881 98.0449 434.782 98.3125 434.582 98.5265C434.382 98.7406 434.089 98.8476 433.704 98.8476C433.319 98.8476 433.026 98.7406 432.826 98.5265C432.634 98.3125 432.537 98.0449 432.537 97.7238ZM437.332 106.479C437.332 105.344 437.554 104.324 437.996 103.418C438.446 102.512 439.066 101.812 439.858 101.32C440.658 100.828 441.567 100.581 442.588 100.581C444.165 100.581 445.438 101.127 446.409 102.219C447.386 103.311 447.875 104.763 447.875 106.575V106.714C447.875 107.842 447.657 108.855 447.222 109.754C446.794 110.646 446.177 111.342 445.37 111.841C444.571 112.341 443.651 112.59 442.609 112.59C441.039 112.59 439.766 112.044 438.788 110.953C437.818 109.861 437.332 108.416 437.332 106.618V106.479ZM439.323 106.714C439.323 107.999 439.619 109.03 440.212 109.807C440.811 110.585 441.61 110.974 442.609 110.974C443.615 110.974 444.414 110.582 445.007 109.797C445.599 109.005 445.895 107.899 445.895 106.479C445.895 105.209 445.592 104.181 444.985 103.396C444.386 102.604 443.587 102.208 442.588 102.208C441.61 102.208 440.822 102.597 440.222 103.375C439.623 104.153 439.323 105.266 439.323 106.714ZM452.231 100.796L452.295 102.251C453.18 101.138 454.336 100.581 455.763 100.581C458.21 100.581 459.445 101.962 459.466 104.724V112.376H457.486V104.713C457.479 103.878 457.286 103.261 456.908 102.861C456.537 102.462 455.956 102.262 455.164 102.262C454.521 102.262 453.958 102.433 453.473 102.776C452.987 103.118 452.609 103.568 452.338 104.124V112.376H450.358V100.796H452.231ZM467.408 106.49C467.408 104.713 467.829 103.286 468.671 102.208C469.513 101.124 470.615 100.581 471.978 100.581C473.334 100.581 474.408 101.045 475.2 101.973V95.9364H477.18V112.376H475.36L475.264 111.135C474.472 112.105 473.37 112.59 471.957 112.59C470.615 112.59 469.52 112.041 468.671 110.942C467.829 109.843 467.408 108.409 467.408 106.639V106.49ZM469.388 106.714C469.388 108.027 469.659 109.055 470.201 109.797C470.744 110.539 471.493 110.91 472.449 110.91C473.705 110.91 474.622 110.346 475.2 109.219V103.899C474.607 102.808 473.698 102.262 472.47 102.262C471.5 102.262 470.744 102.636 470.201 103.386C469.659 104.135 469.388 105.244 469.388 106.714ZM485.068 112.59C483.498 112.59 482.221 112.077 481.236 111.049C480.252 110.014 479.759 108.634 479.759 106.907V106.543C479.759 105.394 479.977 104.37 480.412 103.471C480.854 102.565 481.468 101.859 482.253 101.352C483.045 100.838 483.901 100.581 484.822 100.581C486.327 100.581 487.497 101.077 488.332 102.069C489.167 103.061 489.585 104.481 489.585 106.329V107.153H481.739C481.768 108.295 482.1 109.219 482.735 109.925C483.377 110.624 484.19 110.974 485.175 110.974C485.874 110.974 486.466 110.831 486.952 110.546C487.437 110.261 487.861 109.882 488.225 109.411L489.435 110.353C488.464 111.845 487.009 112.59 485.068 112.59ZM484.822 102.208C484.023 102.208 483.352 102.501 482.81 103.086C482.267 103.664 481.932 104.477 481.803 105.526H487.605V105.376C487.547 104.37 487.276 103.593 486.791 103.043C486.306 102.487 485.649 102.208 484.822 102.208ZM501.668 106.714C501.668 108.477 501.265 109.897 500.459 110.974C499.653 112.052 498.561 112.59 497.184 112.59C495.778 112.59 494.672 112.144 493.866 111.252V116.829H491.886V100.796H493.695L493.791 102.08C494.597 101.081 495.717 100.581 497.152 100.581C498.543 100.581 499.642 101.106 500.448 102.155C501.262 103.204 501.668 104.663 501.668 106.532V106.714ZM499.688 106.49C499.688 105.184 499.41 104.153 498.853 103.396C498.297 102.64 497.533 102.262 496.563 102.262C495.364 102.262 494.465 102.793 493.866 103.857V109.39C494.458 110.446 495.364 110.974 496.584 110.974C497.533 110.974 498.286 110.6 498.843 109.85C499.406 109.094 499.688 107.974 499.688 106.49ZM509 112.59C507.43 112.59 506.153 112.077 505.168 111.049C504.183 110.014 503.691 108.634 503.691 106.907V106.543C503.691 105.394 503.909 104.37 504.344 103.471C504.786 102.565 505.4 101.859 506.185 101.352C506.977 100.838 507.833 100.581 508.754 100.581C510.259 100.581 511.429 101.077 512.264 102.069C513.099 103.061 513.517 104.481 513.517 106.329V107.153H505.671C505.7 108.295 506.032 109.219 506.667 109.925C507.309 110.624 508.122 110.974 509.107 110.974C509.806 110.974 510.398 110.831 510.884 110.546C511.369 110.261 511.793 109.882 512.157 109.411L513.367 110.353C512.396 111.845 510.941 112.59 509 112.59ZM508.754 102.208C507.955 102.208 507.284 102.501 506.742 103.086C506.199 103.664 505.864 104.477 505.735 105.526H511.536V105.376C511.479 104.37 511.208 103.593 510.723 103.043C510.238 102.487 509.581 102.208 508.754 102.208ZM517.691 100.796L517.755 102.251C518.64 101.138 519.796 100.581 521.223 100.581C523.67 100.581 524.905 101.962 524.926 104.724V112.376H522.946V104.713C522.939 103.878 522.746 103.261 522.368 102.861C521.997 102.462 521.415 102.262 520.623 102.262C519.981 102.262 519.417 102.433 518.932 102.776C518.447 103.118 518.069 103.568 517.798 104.124V112.376H515.818V100.796H517.691ZM527.43 106.49C527.43 104.713 527.851 103.286 528.693 102.208C529.535 101.124 530.638 100.581 532.001 100.581C533.356 100.581 534.43 101.045 535.222 101.973V95.9364H537.202V112.376H535.383L535.286 111.135C534.494 112.105 533.392 112.59 531.979 112.59C530.638 112.59 529.543 112.041 528.693 110.942C527.851 109.843 527.43 108.409 527.43 106.639V106.49ZM529.411 106.714C529.411 108.027 529.682 109.055 530.224 109.797C530.766 110.539 531.515 110.91 532.472 110.91C533.727 110.91 534.644 110.346 535.222 109.219V103.899C534.63 102.808 533.72 102.262 532.493 102.262C531.523 102.262 530.766 102.636 530.224 103.386C529.682 104.135 529.411 105.244 529.411 106.714ZM547.028 109.304C547.028 108.769 546.824 108.355 546.418 108.063C546.018 107.763 545.315 107.506 544.309 107.292C543.31 107.078 542.515 106.821 541.922 106.522C541.337 106.222 540.902 105.865 540.617 105.451C540.338 105.038 540.199 104.545 540.199 103.974C540.199 103.025 540.599 102.223 541.398 101.566C542.204 100.91 543.232 100.581 544.48 100.581C545.793 100.581 546.856 100.92 547.67 101.598C548.49 102.276 548.901 103.143 548.901 104.199H546.91C546.91 103.657 546.678 103.189 546.214 102.797C545.758 102.405 545.18 102.208 544.48 102.208C543.76 102.208 543.196 102.365 542.789 102.679C542.383 102.993 542.179 103.404 542.179 103.91C542.179 104.388 542.368 104.749 542.746 104.991C543.125 105.234 543.806 105.466 544.791 105.687C545.783 105.908 546.585 106.172 547.199 106.479C547.813 106.786 548.266 107.157 548.558 107.592C548.858 108.02 549.008 108.545 549.008 109.165C549.008 110.2 548.594 111.031 547.766 111.659C546.938 112.28 545.865 112.59 544.545 112.59C543.617 112.59 542.796 112.426 542.083 112.098C541.369 111.77 540.809 111.313 540.403 110.728C540.003 110.136 539.803 109.497 539.803 108.812H541.783C541.819 109.476 542.083 110.004 542.575 110.396C543.075 110.781 543.731 110.974 544.545 110.974C545.294 110.974 545.893 110.824 546.343 110.525C546.799 110.218 547.028 109.811 547.028 109.304ZM185.726 132.479C185.726 131.344 185.947 130.324 186.39 129.418C186.839 128.512 187.46 127.812 188.252 127.32C189.051 126.828 189.961 126.581 190.981 126.581C192.558 126.581 193.832 127.127 194.802 128.219C195.78 129.311 196.268 130.763 196.268 132.575V132.714C196.268 133.842 196.051 134.855 195.616 135.754C195.187 136.646 194.57 137.342 193.764 137.841C192.965 138.341 192.044 138.59 191.003 138.59C189.433 138.59 188.159 138.044 187.182 136.953C186.211 135.861 185.726 134.416 185.726 132.618V132.479ZM187.717 132.714C187.717 133.999 188.013 135.03 188.605 135.807C189.204 136.585 190.004 136.974 191.003 136.974C192.009 136.974 192.808 136.582 193.4 135.797C193.992 135.005 194.288 133.899 194.288 132.479C194.288 131.209 193.985 130.181 193.379 129.396C192.779 128.604 191.98 128.208 190.981 128.208C190.004 128.208 189.215 128.597 188.616 129.375C188.016 130.153 187.717 131.266 187.717 132.714ZM200.625 126.796L200.689 128.251C201.574 127.138 202.729 126.581 204.157 126.581C206.604 126.581 207.838 127.962 207.86 130.724V138.376H205.88V130.713C205.873 129.878 205.68 129.261 205.302 128.861C204.931 128.462 204.349 128.262 203.557 128.262C202.915 128.262 202.351 128.433 201.866 128.776C201.381 129.118 201.003 129.568 200.732 130.124V138.376H198.751V126.796H200.625ZM218.969 123.991V126.796H221.132V128.326H218.969V135.508C218.969 135.972 219.066 136.321 219.258 136.557C219.451 136.785 219.779 136.899 220.243 136.899C220.471 136.899 220.785 136.856 221.185 136.771V138.376C220.664 138.519 220.158 138.59 219.665 138.59C218.78 138.59 218.113 138.323 217.664 137.788C217.214 137.252 216.989 136.492 216.989 135.508V128.326H214.881V126.796H216.989V123.991H218.969ZM225.434 128.198C226.312 127.12 227.453 126.581 228.859 126.581C231.307 126.581 232.541 127.962 232.562 130.724V138.376H230.582V130.713C230.575 129.878 230.382 129.261 230.004 128.861C229.633 128.462 229.052 128.262 228.26 128.262C227.618 128.262 227.054 128.433 226.569 128.776C226.083 129.118 225.705 129.568 225.434 130.124V138.376H223.454V121.936H225.434V128.198ZM240.333 138.59C238.763 138.59 237.486 138.077 236.501 137.049C235.516 136.014 235.024 134.634 235.024 132.907V132.543C235.024 131.394 235.242 130.37 235.677 129.471C236.119 128.565 236.733 127.859 237.518 127.352C238.31 126.838 239.166 126.581 240.087 126.581C241.592 126.581 242.762 127.077 243.597 128.069C244.432 129.061 244.849 130.481 244.849 132.329V133.153H237.004C237.033 134.295 237.364 135.219 237.999 135.925C238.642 136.624 239.455 136.974 240.44 136.974C241.139 136.974 241.731 136.831 242.216 136.546C242.702 136.261 243.126 135.882 243.49 135.411L244.7 136.353C243.729 137.845 242.274 138.59 240.333 138.59ZM240.087 128.208C239.287 128.208 238.617 128.501 238.074 129.086C237.532 129.664 237.197 130.477 237.068 131.526H242.869V131.376C242.812 130.37 242.541 129.593 242.056 129.043C241.571 128.487 240.914 128.208 240.087 128.208ZM259.737 138.376C259.623 138.148 259.53 137.741 259.459 137.156C258.539 138.112 257.44 138.59 256.162 138.59C255.021 138.59 254.083 138.269 253.348 137.627C252.62 136.978 252.256 136.157 252.256 135.165C252.256 133.959 252.713 133.025 253.626 132.361C254.546 131.69 255.838 131.355 257.5 131.355H259.427V130.445C259.427 129.753 259.22 129.204 258.806 128.797C258.392 128.383 257.782 128.176 256.976 128.176C256.27 128.176 255.677 128.355 255.199 128.711C254.721 129.068 254.482 129.5 254.482 130.006H252.491C252.491 129.428 252.695 128.872 253.101 128.337C253.515 127.795 254.072 127.366 254.771 127.052C255.477 126.738 256.252 126.581 257.094 126.581C258.428 126.581 259.473 126.917 260.23 127.588C260.986 128.251 261.378 129.168 261.407 130.338V135.668C261.407 136.732 261.543 137.577 261.814 138.205V138.376H259.737ZM256.451 136.867C257.072 136.867 257.661 136.707 258.217 136.385C258.774 136.064 259.177 135.647 259.427 135.133V132.757H257.875C255.449 132.757 254.236 133.467 254.236 134.887C254.236 135.508 254.443 135.993 254.857 136.343C255.271 136.692 255.802 136.867 256.451 136.867ZM267.197 123.991V126.796H269.359V128.326H267.197V135.508C267.197 135.972 267.294 136.321 267.486 136.557C267.679 136.785 268.007 136.899 268.471 136.899C268.699 136.899 269.013 136.856 269.413 136.771V138.376C268.892 138.519 268.385 138.59 267.893 138.59C267.008 138.59 266.341 138.323 265.892 137.788C265.442 137.252 265.217 136.492 265.217 135.508V128.326H263.109V126.796H265.217V123.991H267.197ZM274.368 123.991V126.796H276.53V128.326H274.368V135.508C274.368 135.972 274.465 136.321 274.657 136.557C274.85 136.785 275.178 136.899 275.642 136.899C275.87 136.899 276.184 136.856 276.584 136.771V138.376C276.063 138.519 275.556 138.59 275.064 138.59C274.179 138.59 273.512 138.323 273.063 137.788C272.613 137.252 272.388 136.492 272.388 135.508V128.326H270.28V126.796H272.388V123.991H274.368ZM283.659 138.59C282.089 138.59 280.812 138.077 279.827 137.049C278.842 136.014 278.35 134.634 278.35 132.907V132.543C278.35 131.394 278.567 130.37 279.003 129.471C279.445 128.565 280.059 127.859 280.844 127.352C281.636 126.838 282.492 126.581 283.412 126.581C284.918 126.581 286.088 127.077 286.923 128.069C287.758 129.061 288.175 130.481 288.175 132.329V133.153H280.33C280.358 134.295 280.69 135.219 281.325 135.925C281.967 136.624 282.781 136.974 283.766 136.974C284.465 136.974 285.057 136.831 285.542 136.546C286.027 136.261 286.452 135.882 286.816 135.411L288.025 136.353C287.055 137.845 285.599 138.59 283.659 138.59ZM283.412 128.208C282.613 128.208 281.942 128.501 281.4 129.086C280.858 129.664 280.523 130.477 280.394 131.526H286.195V131.376C286.138 130.37 285.867 129.593 285.382 129.043C284.897 128.487 284.24 128.208 283.412 128.208ZM292.349 126.796L292.414 128.251C293.298 127.138 294.454 126.581 295.881 126.581C298.329 126.581 299.563 127.962 299.585 130.724V138.376H297.605V130.713C297.597 129.878 297.405 129.261 297.027 128.861C296.656 128.462 296.074 128.262 295.282 128.262C294.64 128.262 294.076 128.433 293.591 128.776C293.106 129.118 292.728 129.568 292.456 130.124V138.376H290.476V126.796H292.349ZM305.257 123.991V126.796H307.419V128.326H305.257V135.508C305.257 135.972 305.354 136.321 305.546 136.557C305.739 136.785 306.067 136.899 306.531 136.899C306.759 136.899 307.073 136.856 307.473 136.771V138.376C306.952 138.519 306.445 138.59 305.953 138.59C305.068 138.59 304.401 138.323 303.951 137.788C303.502 137.252 303.277 136.492 303.277 135.508V128.326H301.169V126.796H303.277V123.991H305.257ZM311.893 138.376H309.913V126.796H311.893V138.376ZM309.752 123.724C309.752 123.403 309.849 123.132 310.041 122.91C310.241 122.689 310.534 122.579 310.919 122.579C311.304 122.579 311.597 122.689 311.797 122.91C311.997 123.132 312.096 123.403 312.096 123.724C312.096 124.045 311.997 124.312 311.797 124.527C311.597 124.741 311.304 124.848 310.919 124.848C310.534 124.848 310.241 124.741 310.041 124.527C309.849 124.312 309.752 124.045 309.752 123.724ZM314.547 132.479C314.547 131.344 314.769 130.324 315.211 129.418C315.661 128.512 316.281 127.812 317.073 127.32C317.873 126.828 318.782 126.581 319.803 126.581C321.38 126.581 322.653 127.127 323.624 128.219C324.601 129.311 325.09 130.763 325.09 132.575V132.714C325.09 133.842 324.872 134.855 324.437 135.754C324.009 136.646 323.392 137.342 322.585 137.841C321.786 138.341 320.866 138.59 319.824 138.59C318.254 138.59 316.981 138.044 316.003 136.953C315.033 135.861 314.547 134.416 314.547 132.618V132.479ZM316.538 132.714C316.538 133.999 316.834 135.03 317.427 135.807C318.026 136.585 318.825 136.974 319.824 136.974C320.83 136.974 321.629 136.582 322.222 135.797C322.814 135.005 323.11 133.899 323.11 132.479C323.11 131.209 322.807 130.181 322.2 129.396C321.601 128.604 320.802 128.208 319.803 128.208C318.825 128.208 318.037 128.597 317.437 129.375C316.838 130.153 316.538 131.266 316.538 132.714ZM329.446 126.796L329.51 128.251C330.395 127.138 331.551 126.581 332.978 126.581C335.425 126.581 336.66 127.962 336.681 130.724V138.376H334.701V130.713C334.694 129.878 334.501 129.261 334.123 128.861C333.752 128.462 333.171 128.262 332.379 128.262C331.736 128.262 331.173 128.433 330.688 128.776C330.202 129.118 329.824 129.568 329.553 130.124V138.376H327.573V126.796H329.446ZM354.887 132.714C354.887 134.477 354.484 135.897 353.678 136.974C352.871 138.052 351.78 138.59 350.403 138.59C348.997 138.59 347.891 138.144 347.085 137.252V142.829H345.105V126.796H346.913L347.01 128.08C347.816 127.081 348.936 126.581 350.37 126.581C351.762 126.581 352.861 127.106 353.667 128.155C354.48 129.204 354.887 130.663 354.887 132.532V132.714ZM352.907 132.49C352.907 131.184 352.629 130.153 352.072 129.396C351.516 128.64 350.752 128.262 349.782 128.262C348.583 128.262 347.684 128.793 347.085 129.857V135.39C347.677 136.446 348.583 136.974 349.803 136.974C350.752 136.974 351.505 136.6 352.062 135.85C352.625 135.094 352.907 133.974 352.907 132.49ZM364.563 138.376C364.448 138.148 364.356 137.741 364.284 137.156C363.364 138.112 362.265 138.59 360.988 138.59C359.846 138.59 358.908 138.269 358.173 137.627C357.445 136.978 357.081 136.157 357.081 135.165C357.081 133.959 357.538 133.025 358.451 132.361C359.372 131.69 360.663 131.355 362.326 131.355H364.252V130.445C364.252 129.753 364.045 129.204 363.631 128.797C363.218 128.383 362.608 128.176 361.801 128.176C361.095 128.176 360.503 128.355 360.025 128.711C359.546 129.068 359.307 129.5 359.307 130.006H357.317C357.317 129.428 357.52 128.872 357.927 128.337C358.341 127.795 358.897 127.366 359.596 127.052C360.303 126.738 361.077 126.581 361.919 126.581C363.253 126.581 364.299 126.917 365.055 127.588C365.811 128.251 366.204 129.168 366.232 130.338V135.668C366.232 136.732 366.368 137.577 366.639 138.205V138.376H364.563ZM361.277 136.867C361.898 136.867 362.486 136.707 363.043 136.385C363.599 136.064 364.003 135.647 364.252 135.133V132.757H362.7C360.274 132.757 359.061 133.467 359.061 134.887C359.061 135.508 359.268 135.993 359.682 136.343C360.096 136.692 360.627 136.867 361.277 136.867ZM371.487 138.376H369.507V126.796H371.487V138.376ZM369.347 123.724C369.347 123.403 369.443 123.132 369.636 122.91C369.836 122.689 370.128 122.579 370.514 122.579C370.899 122.579 371.191 122.689 371.391 122.91C371.591 123.132 371.691 123.403 371.691 123.724C371.691 124.045 371.591 124.312 371.391 124.527C371.191 124.741 370.899 124.848 370.514 124.848C370.128 124.848 369.836 124.741 369.636 124.527C369.443 124.312 369.347 124.045 369.347 123.724ZM374.185 132.49C374.185 130.713 374.606 129.286 375.448 128.208C376.29 127.124 377.392 126.581 378.755 126.581C380.111 126.581 381.184 127.045 381.976 127.973V121.936H383.957V138.376H382.137L382.041 137.135C381.249 138.105 380.146 138.59 378.733 138.59C377.392 138.59 376.297 138.041 375.448 136.942C374.606 135.843 374.185 134.409 374.185 132.639V132.49ZM376.165 132.714C376.165 134.027 376.436 135.055 376.978 135.797C377.52 136.539 378.27 136.91 379.226 136.91C380.482 136.91 381.398 136.346 381.976 135.219V129.899C381.384 128.808 380.474 128.262 379.247 128.262C378.277 128.262 377.52 128.636 376.978 129.386C376.436 130.135 376.165 131.244 376.165 132.714ZM395.163 123.991V126.796H397.325V128.326H395.163V135.508C395.163 135.972 395.259 136.321 395.452 136.557C395.644 136.785 395.972 136.899 396.436 136.899C396.665 136.899 396.979 136.856 397.378 136.771V138.376C396.857 138.519 396.351 138.59 395.858 138.59C394.973 138.59 394.306 138.323 393.857 137.788C393.407 137.252 393.182 136.492 393.182 135.508V128.326H391.074V126.796H393.182V123.991H395.163ZM398.909 132.479C398.909 131.344 399.13 130.324 399.572 129.418C400.022 128.512 400.643 127.812 401.435 127.32C402.234 126.828 403.143 126.581 404.164 126.581C405.741 126.581 407.014 127.127 407.985 128.219C408.962 129.311 409.451 130.763 409.451 132.575V132.714C409.451 133.842 409.233 134.855 408.798 135.754C408.37 136.646 407.753 137.342 406.947 137.841C406.147 138.341 405.227 138.59 404.185 138.59C402.615 138.59 401.342 138.044 400.364 136.953C399.394 135.861 398.909 134.416 398.909 132.618V132.479ZM400.899 132.714C400.899 133.999 401.195 135.03 401.788 135.807C402.387 136.585 403.186 136.974 404.185 136.974C405.191 136.974 405.99 136.582 406.583 135.797C407.175 135.005 407.471 133.899 407.471 132.479C407.471 131.209 407.168 130.181 406.561 129.396C405.962 128.604 405.163 128.208 404.164 128.208C403.186 128.208 402.398 128.597 401.798 129.375C401.199 130.153 400.899 131.266 400.899 132.714ZM416.89 132.49C416.89 130.713 417.311 129.286 418.153 128.208C418.995 127.124 420.097 126.581 421.46 126.581C422.816 126.581 423.889 127.045 424.681 127.973V121.936H426.662V138.376H424.842L424.746 137.135C423.954 138.105 422.851 138.59 421.438 138.59C420.097 138.59 419.002 138.041 418.153 136.942C417.311 135.843 416.89 134.409 416.89 132.639V132.49ZM418.87 132.714C418.87 134.027 419.141 135.055 419.683 135.797C420.225 136.539 420.975 136.91 421.931 136.91C423.187 136.91 424.104 136.346 424.681 135.219V129.899C424.089 128.808 423.179 128.262 421.952 128.262C420.982 128.262 420.225 128.636 419.683 129.386C419.141 130.135 418.87 131.244 418.87 132.714ZM434.55 138.59C432.98 138.59 431.703 138.077 430.718 137.049C429.733 136.014 429.241 134.634 429.241 132.907V132.543C429.241 131.394 429.459 130.37 429.894 129.471C430.336 128.565 430.95 127.859 431.735 127.352C432.527 126.838 433.383 126.581 434.303 126.581C435.809 126.581 436.979 127.077 437.814 128.069C438.649 129.061 439.066 130.481 439.066 132.329V133.153H431.221C431.25 134.295 431.581 135.219 432.216 135.925C432.859 136.624 433.672 136.974 434.657 136.974C435.356 136.974 435.948 136.831 436.433 136.546C436.919 136.261 437.343 135.882 437.707 135.411L438.916 136.353C437.946 137.845 436.49 138.59 434.55 138.59ZM434.303 128.208C433.504 128.208 432.834 128.501 432.291 129.086C431.749 129.664 431.414 130.477 431.285 131.526H437.086V131.376C437.029 130.37 436.758 129.593 436.273 129.043C435.788 128.487 435.131 128.208 434.303 128.208ZM444.054 123.991V126.796H446.216V128.326H444.054V135.508C444.054 135.972 444.15 136.321 444.343 136.557C444.536 136.785 444.864 136.899 445.328 136.899C445.556 136.899 445.87 136.856 446.269 136.771V138.376C445.749 138.519 445.242 138.59 444.75 138.59C443.865 138.59 443.198 138.323 442.748 137.788C442.299 137.252 442.074 136.492 442.074 135.508V128.326H439.965V126.796H442.074V123.991H444.054ZM455.688 138.376C455.574 138.148 455.481 137.741 455.41 137.156C454.489 138.112 453.391 138.59 452.113 138.59C450.972 138.59 450.033 138.269 449.298 137.627C448.571 136.978 448.207 136.157 448.207 135.165C448.207 133.959 448.663 133.025 449.577 132.361C450.497 131.69 451.789 131.355 453.451 131.355H455.378V130.445C455.378 129.753 455.171 129.204 454.757 128.797C454.343 128.383 453.733 128.176 452.927 128.176C452.22 128.176 451.628 128.355 451.15 128.711C450.672 129.068 450.433 129.5 450.433 130.006H448.442C448.442 129.428 448.646 128.872 449.052 128.337C449.466 127.795 450.023 127.366 450.722 127.052C451.428 126.738 452.202 126.581 453.044 126.581C454.379 126.581 455.424 126.917 456.18 127.588C456.937 128.251 457.329 129.168 457.358 130.338V135.668C457.358 136.732 457.493 137.577 457.764 138.205V138.376H455.688ZM452.402 136.867C453.023 136.867 453.612 136.707 454.168 136.385C454.725 136.064 455.128 135.647 455.378 135.133V132.757H453.826C451.4 132.757 450.187 133.467 450.187 134.887C450.187 135.508 450.394 135.993 450.808 136.343C451.221 136.692 451.753 136.867 452.402 136.867ZM462.613 138.376H460.633V126.796H462.613V138.376ZM460.472 123.724C460.472 123.403 460.569 123.132 460.761 122.91C460.961 122.689 461.254 122.579 461.639 122.579C462.024 122.579 462.317 122.689 462.517 122.91C462.716 123.132 462.816 123.403 462.816 123.724C462.816 124.045 462.716 124.312 462.517 124.527C462.317 124.741 462.024 124.848 461.639 124.848C461.254 124.848 460.961 124.741 460.761 124.527C460.569 124.312 460.472 124.045 460.472 123.724ZM467.943 138.376H465.963V121.936H467.943V138.376ZM471.165 137.338C471.165 136.996 471.265 136.71 471.464 136.482C471.671 136.253 471.978 136.139 472.385 136.139C472.792 136.139 473.098 136.253 473.305 136.482C473.519 136.71 473.626 136.996 473.626 137.338C473.626 137.666 473.519 137.941 473.305 138.162C473.098 138.383 472.792 138.494 472.385 138.494C471.978 138.494 471.671 138.383 471.464 138.162C471.265 137.941 471.165 137.666 471.165 137.338Z" fill="#232323"/>
<path d="M123.846 62.8609V116.915H104.641V58.17L93.5799 116.915H78.6072L67.549 58.17V116.915H48.341V38.0715H77.7049L85.9839 84.7824H86.2044L94.1256 40.0864C95.2363 34.6489 95.622 31.4337 94.5428 25.9344C86.3583 -15.775 -23.7198 3.9466 4.66548 66.708C13.4445 86.1205 20.6985 85.2616 23.8076 117.736C30.047 182.905 82.1853 150.634 115.248 150.634C153.28 150.634 158.825 119.793 158.825 81.7465C158.824 60.6233 141.443 65.3557 123.846 62.8609Z" fill="#6554C0"/>
</svg>
