<svg id="all-logos" xmlns="http://www.w3.org/2000/svg" xmlns:xlink="http://www.w3.org/1999/xlink" viewBox="0 0 315.07685 337.8195"><defs><linearGradient id="linear-gradient" x1="141.10109" y1="121.89421" x2="161.99985" y2="204.71523" gradientUnits="userSpaceOnUse"><stop offset="0.01093" stop-color="#e67417"/><stop offset="0.99952" stop-color="#e62f17"/></linearGradient><linearGradient id="New_Gradient_Swatch" x1="157.53505" y1="146.08214" x2="157.53505" y2="244.76161" gradientUnits="userSpaceOnUse"><stop offset="0" stop-color="#f2bb30"/><stop offset="0.30905" stop-color="#e67417"/><stop offset="1" stop-color="#e62f17"/></linearGradient><linearGradient id="linear-gradient-2" x1="195.59505" y1="189.53959" x2="202.97741" y2="155.26436" gradientUnits="userSpaceOnUse"><stop offset="0" stop-color="#fff"/><stop offset="1" stop-color="#fff" stop-opacity="0"/></linearGradient></defs><title>light-hex</title>

<path d="M123.846 62.8609V116.915H104.641V58.17L93.5799 116.915H78.6072L67.549 58.17V116.915H48.341V38.0715H77.7049L85.9839 84.7824H86.2044L94.1256 40.0864C95.2363 34.6489 95.622 31.4337 94.5428 25.9344C86.3583 -15.775 -23.7198 3.9466 4.66548 66.708C13.4445 86.1205 20.6985 85.2616 23.8076 117.736C30.047 182.905 82.1853 150.634 115.248 150.634C153.28 150.634 158.825 119.793 158.825 81.7465C158.824 60.6233 141.443 65.3557 123.846 62.8609Z" fill="#6554C0"/></svg>